<svg width="40" height="40" viewBox="0 0 40 40" fill="none" xmlns="http://www.w3.org/2000/svg">
<g id="Help circle">
<path id="Icon" d="M15.1499 15C15.5418 13.8861 16.3152 12.9469 17.3332 12.3486C18.3512 11.7503 19.5481 11.5316 20.7119 11.7312C21.8757 11.9308 22.9313 12.5359 23.6917 13.4392C24.4521 14.3426 24.8683 15.4859 24.8666 16.6667C24.8666 20 19.8666 21.6667 19.8666 21.6667M19.9999 28.3333H20.0166M36.6666 20C36.6666 29.2048 29.2047 36.6667 19.9999 36.6667C10.7952 36.6667 3.33325 29.2048 3.33325 20C3.33325 10.7953 10.7952 3.33334 19.9999 3.33334C29.2047 3.33334 36.6666 10.7953 36.6666 20Z" stroke="#1E1E1E" stroke-width="4" stroke-linecap="round" stroke-linejoin="round"/>
</g>
</svg>
