<svg width="40" height="40" viewBox="0 0 40 40" fill="none" xmlns="http://www.w3.org/2000/svg">
<g id="Settings" clip-path="url(#clip0_418_721)">
<g id="Icon">
<path d="M20.0001 25C22.7615 25 25.0001 22.7614 25.0001 20C25.0001 17.2386 22.7615 15 20.0001 15C17.2387 15 15.0001 17.2386 15.0001 20C15.0001 22.7614 17.2387 25 20.0001 25Z" stroke="#1E1E1E" stroke-width="4" stroke-linecap="round" stroke-linejoin="round"/>
<path d="M32.3334 25C32.1116 25.5027 32.0454 26.0603 32.1434 26.601C32.2414 27.1416 32.4992 27.6405 32.8834 28.0333L32.9834 28.1333C33.2933 28.4429 33.5392 28.8105 33.7069 29.2152C33.8747 29.6198 33.961 30.0536 33.961 30.4917C33.961 30.9297 33.8747 31.3635 33.7069 31.7681C33.5392 32.1728 33.2933 32.5404 32.9834 32.85C32.6738 33.1599 32.3062 33.4058 31.9015 33.5735C31.4969 33.7413 31.0631 33.8276 30.6251 33.8276C30.187 33.8276 29.7533 33.7413 29.3486 33.5735C28.944 33.4058 28.5763 33.1599 28.2667 32.85L28.1667 32.75C27.7739 32.3658 27.2751 32.108 26.7344 32.01C26.1937 31.9119 25.6361 31.9781 25.1334 32.2C24.6405 32.4113 24.2201 32.7621 23.9239 33.2092C23.6278 33.6564 23.4689 34.1803 23.4667 34.7167V35C23.4667 35.884 23.1156 36.7319 22.4904 37.357C21.8653 37.9821 21.0175 38.3333 20.1334 38.3333C19.2494 38.3333 18.4015 37.9821 17.7764 37.357C17.1513 36.7319 16.8001 35.884 16.8001 35V34.85C16.7872 34.2983 16.6086 33.7633 16.2876 33.3145C15.9666 32.8657 15.518 32.5238 15.0001 32.3333C14.4974 32.1115 13.9398 32.0453 13.3991 32.1433C12.8584 32.2413 12.3595 32.4991 11.9667 32.8833L11.8667 32.9833C11.5572 33.2932 11.1895 33.5391 10.7849 33.7069C10.3802 33.8746 9.94647 33.9609 9.50841 33.9609C9.07036 33.9609 8.63661 33.8746 8.23195 33.7069C7.82729 33.5391 7.45966 33.2932 7.15008 32.9833C6.84016 32.6737 6.5943 32.3061 6.42655 31.9015C6.2588 31.4968 6.17246 31.063 6.17246 30.625C6.17246 30.1869 6.2588 29.7532 6.42655 29.3485C6.5943 28.9439 6.84016 28.5762 7.15008 28.2667L7.25008 28.1667C7.63431 27.7739 7.89206 27.275 7.99009 26.7343C8.08812 26.1936 8.02194 25.636 7.80008 25.1333C7.58881 24.6404 7.23801 24.22 6.79086 23.9238C6.34371 23.6277 5.81973 23.4688 5.28341 23.4667H5.00008C4.11603 23.4667 3.26818 23.1155 2.64306 22.4903C2.01794 21.8652 1.66675 21.0174 1.66675 20.1333C1.66675 19.2493 2.01794 18.4014 2.64306 17.7763C3.26818 17.1512 4.11603 16.8 5.00008 16.8H5.15008C5.70174 16.7871 6.23676 16.6085 6.68558 16.2875C7.1344 15.9665 7.47627 15.5179 7.66675 15C7.88861 14.4973 7.95479 13.9397 7.85675 13.399C7.75872 12.8583 7.50098 12.3595 7.11675 11.9667L7.01675 11.8667C6.70683 11.5571 6.46096 11.1895 6.29322 10.7848C6.12547 10.3801 6.03913 9.94637 6.03913 9.50832C6.03913 9.07027 6.12547 8.63651 6.29322 8.23185C6.46096 7.82719 6.70683 7.45957 7.01675 7.14999C7.32632 6.84007 7.69395 6.5942 8.09861 6.42646C8.50327 6.25871 8.93703 6.17237 9.37508 6.17237C9.81313 6.17237 10.2469 6.25871 10.6515 6.42646C11.0562 6.5942 11.4238 6.84007 11.7334 7.14999L11.8334 7.24999C12.2262 7.63422 12.7251 7.89197 13.2658 7.99C13.8064 8.08803 14.3641 8.02185 14.8667 7.79999H15.0001C15.493 7.58872 15.9134 7.23792 16.2096 6.79076C16.5057 6.34361 16.6646 5.81963 16.6667 5.28332V4.99999C16.6667 4.11593 17.0179 3.26809 17.6431 2.64297C18.2682 2.01785 19.116 1.66666 20.0001 1.66666C20.8841 1.66666 21.732 2.01785 22.3571 2.64297C22.9822 3.26809 23.3334 4.11593 23.3334 4.99999V5.14999C23.3356 5.6863 23.4945 6.21028 23.7906 6.65743C24.0867 7.10458 24.5071 7.45538 25.0001 7.66666C25.5028 7.88851 26.0604 7.95469 26.6011 7.85666C27.1417 7.75863 27.6406 7.50088 28.0334 7.11666L28.1334 7.01666C28.443 6.70673 28.8106 6.46087 29.2153 6.29312C29.6199 6.12538 30.0537 6.03903 30.4917 6.03903C30.9298 6.03903 31.3636 6.12538 31.7682 6.29312C32.1729 6.46087 32.5405 6.70673 32.8501 7.01666C33.16 7.32623 33.4059 7.69386 33.5736 8.09852C33.7414 8.50318 33.8277 8.93694 33.8277 9.37499C33.8277 9.81304 33.7414 10.2468 33.5736 10.6515C33.4059 11.0561 33.16 11.4237 32.8501 11.7333L32.7501 11.8333C32.3658 12.2261 32.1081 12.725 32.0101 13.2657C31.912 13.8063 31.9782 14.364 32.2001 14.8667V15C32.4113 15.4929 32.7622 15.9134 33.2093 16.2095C33.6565 16.5056 34.1804 16.6645 34.7167 16.6667H35.0001C35.8841 16.6667 36.732 17.0178 37.3571 17.643C37.9822 18.2681 38.3334 19.1159 38.3334 20C38.3334 20.884 37.9822 21.7319 37.3571 22.357C36.732 22.9821 35.8841 23.3333 35.0001 23.3333H34.8501C34.3138 23.3355 33.7898 23.4944 33.3426 23.7905C32.8955 24.0866 32.5447 24.507 32.3334 25Z" stroke="#1E1E1E" stroke-width="4" stroke-linecap="round" stroke-linejoin="round"/>
</g>
</g>
<defs>
<clipPath id="clip0_418_721">
<rect width="40" height="40" fill="white"/>
</clipPath>
</defs>
</svg>
