<svg width="24" height="25" viewBox="0 0 24 25" fill="none" xmlns="http://www.w3.org/2000/svg">
    <path d="M9 17.4736C8.3 17.4736 7.70833 17.232 7.225 16.7486C6.74167 16.2653 6.5 15.6736 6.5 14.9736C6.5 14.2736 6.74167 13.682 7.225 13.1986C7.70833 12.7153 8.3 12.4736 9 12.4736C9.7 12.4736 10.2917 12.7153 10.775 13.1986C11.2583 13.682 11.5 14.2736 11.5 14.9736C11.5 15.6736 11.2583 16.2653 10.775 16.7486C10.2917 17.232 9.7 17.4736 9 17.4736ZM5 22.9736C4.45 22.9736 3.97917 22.7778 3.5875 22.3861C3.19583 21.9945 3 21.5236 3 20.9736V6.97363C3 6.42363 3.19583 5.9528 3.5875 5.56113C3.97917 5.16947 4.45 4.97363 5 4.97363H6V2.97363H8V4.97363H16V2.97363H18V4.97363H19C19.55 4.97363 20.0208 5.16947 20.4125 5.56113C20.8042 5.9528 21 6.42363 21 6.97363V20.9736C21 21.5236 20.8042 21.9945 20.4125 22.3861C20.0208 22.7778 19.55 22.9736 19 22.9736H5ZM5 20.9736H19V10.9736H5V20.9736Z"
          fill="#A3B383"/>
</svg>
