<svg width="40" height="40" viewBox="0 0 40 40" fill="none" xmlns="http://www.w3.org/2000/svg">
    <g clip-path="url(#clip0_106_340)">
        <path d="M20 25C22.7614 25 25 22.7614 25 20C25 17.2386 22.7614 15 20 15C17.2386 15 15 17.2386 15 20C15 22.7614 17.2386 25 20 25Z"
              stroke="#F3F3F3" stroke-width="2" stroke-linecap="round" stroke-linejoin="round"/>
        <path d="M32.3334 25C32.1115 25.5027 32.0453 26.0603 32.1433 26.601C32.2414 27.1417 32.4991 27.6406 32.8833 28.0334L32.9834 28.1333C33.2933 28.4429 33.5391 28.8106 33.7069 29.2152C33.8746 29.6199 33.961 30.0536 33.961 30.4917C33.961 30.9297 33.8746 31.3635 33.7069 31.7682C33.5391 32.1728 33.2933 32.5404 32.9834 32.85C32.6738 33.1599 32.3061 33.4058 31.9015 33.5735C31.4968 33.7413 31.0631 33.8276 30.625 33.8276C30.187 33.8276 29.7532 33.7413 29.3486 33.5735C28.9439 33.4058 28.5763 33.1599 28.2667 32.85L28.1667 32.75C27.7739 32.3658 27.275 32.108 26.7343 32.01C26.1937 31.912 25.636 31.9782 25.1334 32.2C24.6404 32.4113 24.22 32.7621 23.9239 33.2092C23.6277 33.6564 23.4688 34.1804 23.4667 34.7167V35C23.4667 35.8841 23.1155 36.7319 22.4904 37.357C21.8653 37.9822 21.0174 38.3334 20.1334 38.3334C19.2493 38.3334 18.4015 37.9822 17.7763 37.357C17.1512 36.7319 16.8 35.8841 16.8 35V34.85C16.7871 34.2984 16.6085 33.7633 16.2875 33.3145C15.9665 32.8657 15.5179 32.5238 15 32.3334C14.4973 32.1115 13.9397 32.0453 13.399 32.1433C12.8584 32.2414 12.3595 32.4991 11.9667 32.8833L11.8667 32.9834C11.5571 33.2933 11.1895 33.5391 10.7848 33.7069C10.3802 33.8746 9.9464 33.961 9.50835 33.961C9.0703 33.961 8.63655 33.8746 8.23189 33.7069C7.82723 33.5391 7.4596 33.2933 7.15002 32.9834C6.8401 32.6738 6.59424 32.3061 6.42649 31.9015C6.25874 31.4968 6.1724 31.0631 6.1724 30.625C6.1724 30.187 6.25874 29.7532 6.42649 29.3486C6.59424 28.9439 6.8401 28.5763 7.15002 28.2667L7.25002 28.1667C7.63425 27.7739 7.892 27.275 7.99003 26.7343C8.08806 26.1937 8.02188 25.636 7.80002 25.1334C7.58875 24.6404 7.23795 24.22 6.7908 23.9239C6.34365 23.6277 5.81966 23.4688 5.28335 23.4667H5.00002C4.11597 23.4667 3.26812 23.1155 2.643 22.4904C2.01788 21.8653 1.66669 21.0174 1.66669 20.1334C1.66669 19.2493 2.01788 18.4015 2.643 17.7763C3.26812 17.1512 4.11597 16.8 5.00002 16.8H5.15002C5.70168 16.7871 6.23669 16.6085 6.68552 16.2875C7.13434 15.9665 7.47621 15.5179 7.66669 15C7.88854 14.4973 7.95473 13.9397 7.85669 13.399C7.75866 12.8584 7.50091 12.3595 7.11669 11.9667L7.01669 11.8667C6.70677 11.5571 6.4609 11.1895 6.29315 10.7848C6.12541 10.3802 6.03906 9.9464 6.03906 9.50835C6.03906 9.0703 6.12541 8.63655 6.29315 8.23189C6.4609 7.82723 6.70677 7.4596 7.01669 7.15002C7.32626 6.8401 7.69389 6.59424 8.09855 6.42649C8.50321 6.25874 8.93697 6.1724 9.37502 6.1724C9.81307 6.1724 10.2468 6.25874 10.6515 6.42649C11.0561 6.59424 11.4238 6.8401 11.7334 7.15002L11.8334 7.25002C12.2262 7.63425 12.725 7.892 13.2657 7.99003C13.8064 8.08806 14.364 8.02188 14.8667 7.80002H15C15.493 7.58875 15.9134 7.23795 16.2095 6.7908C16.5056 6.34365 16.6645 5.81966 16.6667 5.28335V5.00002C16.6667 4.11597 17.0179 3.26812 17.643 2.643C18.2681 2.01788 19.116 1.66669 20 1.66669C20.8841 1.66669 21.7319 2.01788 22.357 2.643C22.9822 3.26812 23.3334 4.11597 23.3334 5.00002V5.15002C23.3355 5.68633 23.4944 6.21031 23.7905 6.65746C24.0867 7.10461 24.5071 7.45541 25 7.66669C25.5027 7.88854 26.0603 7.95473 26.601 7.85669C27.1417 7.75866 27.6406 7.50091 28.0334 7.11669L28.1333 7.01669C28.4429 6.70677 28.8106 6.4609 29.2152 6.29315C29.6199 6.12541 30.0536 6.03906 30.4917 6.03906C30.9297 6.03906 31.3635 6.12541 31.7682 6.29315C32.1728 6.4609 32.5404 6.70677 32.85 7.01669C33.1599 7.32626 33.4058 7.69389 33.5735 8.09855C33.7413 8.50321 33.8276 8.93697 33.8276 9.37502C33.8276 9.81307 33.7413 10.2468 33.5735 10.6515C33.4058 11.0561 33.1599 11.4238 32.85 11.7334L32.75 11.8334C32.3658 12.2262 32.108 12.725 32.01 13.2657C31.912 13.8064 31.9782 14.364 32.2 14.8667V15C32.4113 15.493 32.7621 15.9134 33.2092 16.2095C33.6564 16.5056 34.1804 16.6645 34.7167 16.6667H35C35.8841 16.6667 36.7319 17.0179 37.357 17.643C37.9822 18.2681 38.3334 19.116 38.3334 20C38.3334 20.8841 37.9822 21.7319 37.357 22.357C36.7319 22.9822 35.8841 23.3334 35 23.3334H34.85C34.3137 23.3355 33.7897 23.4944 33.3426 23.7905C32.8954 24.0867 32.5446 24.5071 32.3334 25Z"
              stroke="#F3F3F3" stroke-width="2" stroke-linecap="round" stroke-linejoin="round"/>
    </g>
    <defs>
        <clipPath id="clip0_106_340">
            <rect width="40" height="40" fill="white"/>
        </clipPath>
    </defs>
</svg>
