<svg width="40" height="40" viewBox="0 0 40 40" fill="none" xmlns="http://www.w3.org/2000/svg">
    <g clip-path="url(#clip0_106_211)">
        <path d="M19.9998 25C22.7613 25 24.9998 22.7614 24.9998 20C24.9998 17.2386 22.7613 15 19.9998 15C17.2384 15 14.9998 17.2386 14.9998 20C14.9998 22.7614 17.2384 25 19.9998 25Z"
              stroke="#1E1E1E" stroke-width="4" stroke-linecap="round" stroke-linejoin="round"/>
        <path d="M32.3332 25C32.1113 25.5027 32.0451 26.0603 32.1432 26.601C32.2412 27.1416 32.4989 27.6405 32.8832 28.0333L32.9832 28.1333C33.2931 28.4429 33.539 28.8105 33.7067 29.2152C33.8744 29.6198 33.9608 30.0536 33.9608 30.4917C33.9608 30.9297 33.8744 31.3635 33.7067 31.7681C33.539 32.1728 33.2931 32.5404 32.9832 32.85C32.6736 33.1599 32.306 33.4058 31.9013 33.5735C31.4966 33.7413 31.0629 33.8276 30.6248 33.8276C30.1868 33.8276 29.753 33.7413 29.3484 33.5735C28.9437 33.4058 28.5761 33.1599 28.2665 32.85L28.1665 32.75C27.7737 32.3658 27.2748 32.108 26.7341 32.01C26.1935 31.9119 25.6359 31.9781 25.1332 32.2C24.6402 32.4113 24.2198 32.7621 23.9237 33.2092C23.6276 33.6564 23.4686 34.1803 23.4665 34.7167V35C23.4665 35.884 23.1153 36.7319 22.4902 37.357C21.8651 37.9821 21.0172 38.3333 20.1332 38.3333C19.2491 38.3333 18.4013 37.9821 17.7761 37.357C17.151 36.7319 16.7998 35.884 16.7998 35V34.85C16.7869 34.2983 16.6084 33.7633 16.2874 33.3145C15.9663 32.8657 15.5177 32.5238 14.9998 32.3333C14.4971 32.1115 13.9395 32.0453 13.3989 32.1433C12.8582 32.2413 12.3593 32.4991 11.9665 32.8833L11.8665 32.9833C11.5569 33.2932 11.1893 33.5391 10.7846 33.7069C10.38 33.8746 9.94622 33.9609 9.50817 33.9609C9.07012 33.9609 8.63636 33.8746 8.2317 33.7069C7.82704 33.5391 7.45941 33.2932 7.14984 32.9833C6.83992 32.6737 6.59405 32.3061 6.4263 31.9015C6.25856 31.4968 6.17221 31.063 6.17221 30.625C6.17221 30.1869 6.25856 29.7532 6.4263 29.3485C6.59405 28.9439 6.83992 28.5762 7.14984 28.2667L7.24984 28.1667C7.63406 27.7739 7.89181 27.275 7.98984 26.7343C8.08788 26.1936 8.02169 25.636 7.79984 25.1333C7.58856 24.6404 7.23776 24.22 6.79061 23.9238C6.34346 23.6277 5.81948 23.4688 5.28317 23.4667H4.99984C4.11578 23.4667 3.26794 23.1155 2.64281 22.4903C2.01769 21.8652 1.6665 21.0174 1.6665 20.1333C1.6665 19.2493 2.01769 18.4014 2.64281 17.7763C3.26794 17.1512 4.11578 16.8 4.99984 16.8H5.14984C5.70149 16.7871 6.23651 16.6085 6.68534 16.2875C7.13416 15.9665 7.47603 15.5179 7.6665 15C7.88836 14.4973 7.95454 13.9397 7.85651 13.399C7.75848 12.8583 7.50073 12.3595 7.1165 11.9667L7.0165 11.8667C6.70658 11.5571 6.46072 11.1895 6.29297 10.7848C6.12522 10.3801 6.03888 9.94637 6.03888 9.50832C6.03888 9.07027 6.12522 8.63651 6.29297 8.23185C6.46072 7.82719 6.70658 7.45957 7.0165 7.14999C7.32608 6.84007 7.69371 6.5942 8.09837 6.42646C8.50303 6.25871 8.93678 6.17237 9.37484 6.17237C9.81289 6.17237 10.2466 6.25871 10.6513 6.42646C11.056 6.5942 11.4236 6.84007 11.7332 7.14999L11.8332 7.24999C12.226 7.63422 12.7249 7.89197 13.2655 7.99C13.8062 8.08803 14.3638 8.02185 14.8665 7.79999H14.9998C15.4928 7.58872 15.9132 7.23792 16.2093 6.79076C16.5054 6.34361 16.6644 5.81963 16.6665 5.28332V4.99999C16.6665 4.11593 17.0177 3.26809 17.6428 2.64297C18.2679 2.01785 19.1158 1.66666 19.9998 1.66666C20.8839 1.66666 21.7317 2.01785 22.3569 2.64297C22.982 3.26809 23.3332 4.11593 23.3332 4.99999V5.14999C23.3353 5.6863 23.4942 6.21028 23.7903 6.65743C24.0865 7.10458 24.5069 7.45538 24.9998 7.66666C25.5025 7.88851 26.0602 7.95469 26.6008 7.85666C27.1415 7.75863 27.6404 7.50088 28.0332 7.11666L28.1332 7.01666C28.4427 6.70673 28.8104 6.46087 29.215 6.29312C29.6197 6.12538 30.0534 6.03903 30.4915 6.03903C30.9296 6.03903 31.3633 6.12538 31.768 6.29312C32.1726 6.46087 32.5403 6.70673 32.8498 7.01666C33.1598 7.32623 33.4056 7.69386 33.5734 8.09852C33.7411 8.50318 33.8275 8.93694 33.8275 9.37499C33.8275 9.81304 33.7411 10.2468 33.5734 10.6515C33.4056 11.0561 33.1598 11.4237 32.8498 11.7333L32.7498 11.8333C32.3656 12.2261 32.1079 12.725 32.0098 13.2657C31.9118 13.8063 31.978 14.364 32.1998 14.8667V15C32.4111 15.4929 32.7619 15.9134 33.2091 16.2095C33.6562 16.5056 34.1802 16.6645 34.7165 16.6667H34.9998C35.8839 16.6667 36.7317 17.0178 37.3569 17.643C37.982 18.2681 38.3332 19.1159 38.3332 20C38.3332 20.884 37.982 21.7319 37.3569 22.357C36.7317 22.9821 35.8839 23.3333 34.9998 23.3333H34.8498C34.3135 23.3355 33.7895 23.4944 33.3424 23.7905C32.8952 24.0866 32.5444 24.507 32.3332 25Z"
              stroke="#1E1E1E" stroke-width="4" stroke-linecap="round" stroke-linejoin="round"/>
    </g>
    <defs>
        <clipPath id="clip0_106_211">
            <rect width="40" height="40" fill="white"/>
        </clipPath>
    </defs>
</svg>
