<svg width="40" height="40" viewBox="0 0 40 40" fill="none" xmlns="http://www.w3.org/2000/svg">
    <path d="M15.15 15C15.5418 13.8861 16.3152 12.9468 17.3332 12.3485C18.3512 11.7502 19.5481 11.5315 20.7119 11.7312C21.8757 11.9308 22.9313 12.5359 23.6918 13.4392C24.4522 14.3425 24.8684 15.4859 24.8666 16.6666C24.8666 20 19.8666 21.6666 19.8666 21.6666M20 28.3333H20.0166M36.6666 20C36.6666 29.2047 29.2047 36.6666 20 36.6666C10.7952 36.6666 3.33331 29.2047 3.33331 20C3.33331 10.7952 10.7952 3.33331 20 3.33331C29.2047 3.33331 36.6666 10.7952 36.6666 20Z"
          stroke="#F3F3F3" stroke-width="2" stroke-linecap="round" stroke-linejoin="round"/>
</svg>
