<svg width="40" height="40" viewBox="0 0 40 40" fill="none" xmlns="http://www.w3.org/2000/svg">
    <path d="M15.1502 15C15.542 13.8861 16.3154 12.9469 17.3334 12.3486C18.3514 11.7503 19.5483 11.5316 20.7121 11.7312C21.8759 11.9308 22.9315 12.5359 23.692 13.4392C24.4524 14.3426 24.8686 15.4859 24.8668 16.6667C24.8668 20 19.8668 21.6667 19.8668 21.6667M20.0002 28.3333H20.0168M36.6668 20C36.6668 29.2048 29.2049 36.6667 20.0002 36.6667C10.7954 36.6667 3.3335 29.2048 3.3335 20C3.3335 10.7953 10.7954 3.33334 20.0002 3.33334C29.2049 3.33334 36.6668 10.7953 36.6668 20Z"
          stroke="#1E1E1E" stroke-width="4" stroke-linecap="round" stroke-linejoin="round"/>
</svg>
