<svg width="24" height="25" viewBox="0 0 24 25" fill="none" xmlns="http://www.w3.org/2000/svg">
    <path d="M9 16.6201C8.3 16.6201 7.70833 16.3785 7.225 15.8951C6.74167 15.4118 6.5 14.8201 6.5 14.1201C6.5 13.4201 6.74167 12.8285 7.225 12.3451C7.70833 11.8618 8.3 11.6201 9 11.6201C9.7 11.6201 10.2917 11.8618 10.775 12.3451C11.2583 12.8285 11.5 13.4201 11.5 14.1201C11.5 14.8201 11.2583 15.4118 10.775 15.8951C10.2917 16.3785 9.7 16.6201 9 16.6201ZM5 22.1201C4.45 22.1201 3.97917 21.9243 3.5875 21.5326C3.19583 21.141 3 20.6701 3 20.1201V6.12012C3 5.57012 3.19583 5.09928 3.5875 4.70762C3.97917 4.31595 4.45 4.12012 5 4.12012H6V2.12012H8V4.12012H16V2.12012H18V4.12012H19C19.55 4.12012 20.0208 4.31595 20.4125 4.70762C20.8042 5.09928 21 5.57012 21 6.12012V20.1201C21 20.6701 20.8042 21.141 20.4125 21.5326C20.0208 21.9243 19.55 22.1201 19 22.1201H5ZM5 20.1201H19V10.1201H5V20.1201Z"
          fill="#A3B383"/>
</svg>
