<svg width="24" height="25" viewBox="0 0 24 25" fill="none" xmlns="http://www.w3.org/2000/svg">
    <path d="M9 16.5938C8.3 16.5938 7.70833 16.3521 7.225 15.8688C6.74167 15.3854 6.5 14.7937 6.5 14.0938C6.5 13.3938 6.74167 12.8021 7.225 12.3188C7.70833 11.8354 8.3 11.5938 9 11.5938C9.7 11.5938 10.2917 11.8354 10.775 12.3188C11.2583 12.8021 11.5 13.3938 11.5 14.0938C11.5 14.7937 11.2583 15.3854 10.775 15.8688C10.2917 16.3521 9.7 16.5938 9 16.5938ZM5 22.0938C4.45 22.0938 3.97917 21.8979 3.5875 21.5063C3.19583 21.1146 3 20.6437 3 20.0938V6.09375C3 5.54375 3.19583 5.07292 3.5875 4.68125C3.97917 4.28958 4.45 4.09375 5 4.09375H6V2.09375H8V4.09375H16V2.09375H18V4.09375H19C19.55 4.09375 20.0208 4.28958 20.4125 4.68125C20.8042 5.07292 21 5.54375 21 6.09375V20.0938C21 20.6437 20.8042 21.1146 20.4125 21.5063C20.0208 21.8979 19.55 22.0938 19 22.0938H5ZM5 20.0938H19V10.0938H5V20.0938Z"
          fill="#A3B383"/>
</svg>
