<svg width="40" height="41" viewBox="0 0 40 41" fill="none" xmlns="http://www.w3.org/2000/svg">
    <rect x="1.5" y="1.97363" width="37" height="37" rx="6.5" stroke="#1E1E1E" stroke-width="3"/>
    <path d="M6 38.4736H34C36.2091 38.4736 38 36.6828 38 34.4736V6.47363C38 4.26449 36.2091 2.47363 34 2.47363H6C3.79086 2.47363 2 4.26449 2 6.47363V34.4736C2 36.6828 3.79086 38.4736 6 38.4736ZM6 38.4736L28 16.4736L38 26.4736M16 13.4736C16 15.1305 14.6569 16.4736 13 16.4736C11.3431 16.4736 10 15.1305 10 13.4736C10 11.8168 11.3431 10.4736 13 10.4736C14.6569 10.4736 16 11.8168 16 13.4736Z"
          stroke="#1E1E1E" stroke-width="3" stroke-linecap="round" stroke-linejoin="round"/>
</svg>
