<svg width="29" height="29" viewBox="0 0 29 29" fill="none" xmlns="http://www.w3.org/2000/svg">
    <path d="M14.5 23.8333C15.1644 23.8333 15.7331 23.6048 16.2063 23.1479C16.6794 22.6909 16.9159 22.1416 16.9159 21.5C16.9159 20.8583 16.6794 20.309 16.2063 19.852C15.7331 19.3951 15.1644 19.1666 14.5 19.1666C13.8356 19.1666 13.2669 19.3951 12.7937 19.852C12.3206 20.309 12.0841 20.8583 12.0841 21.5C12.0841 22.1416 12.3206 22.6909 12.7937 23.1479C13.2669 23.6048 13.8356 23.8333 14.5 23.8333ZM14.5 16.8333C15.1644 16.8333 15.7331 16.6048 16.2063 16.1479C16.6794 15.6909 16.9159 15.1416 16.9159 14.5C16.9159 13.8583 16.6794 13.309 16.2063 12.852C15.7331 12.3951 15.1644 12.1666 14.5 12.1666C13.8356 12.1666 13.2669 12.3951 12.7937 12.852C12.3206 13.309 12.0841 13.8583 12.0841 14.5C12.0841 15.1416 12.3206 15.6909 12.7937 16.1479C13.2669 16.6048 13.8356 16.8333 14.5 16.8333ZM14.5 9.83329C15.1644 9.83329 15.7331 9.60482 16.2063 9.14788C16.6794 8.69093 16.9159 8.14163 16.9159 7.49996C16.9159 6.85829 16.6794 6.30899 16.2063 5.85204C15.7331 5.3951 15.1644 5.16663 14.5 5.16663C13.8356 5.16663 13.2669 5.3951 12.7937 5.85204C12.3206 6.30899 12.0841 6.85829 12.0841 7.49996C12.0841 8.14163 12.3206 8.69093 12.7937 9.14788C13.2669 9.60482 13.8356 9.83329 14.5 9.83329Z"
          fill="white"/>
</svg>
