<svg width="30" height="30" viewBox="0 0 30 30" fill="none" xmlns="http://www.w3.org/2000/svg">
    <g clip-path="url(#clip0_106_425)">
        <path d="M28.75 5V12.5M28.75 12.5H21.25M28.75 12.5L22.95 7.05C21.6066 5.70589 19.9445 4.72401 18.119 4.19597C16.2934 3.66793 14.3639 3.61094 12.5104 4.03032C10.6568 4.44971 8.93975 5.33179 7.51933 6.59427C6.09892 7.85675 5.02146 9.45848 4.3875 11.25M1.25 25V17.5M1.25 17.5H8.75M1.25 17.5L7.05 22.95C8.39343 24.2941 10.0555 25.276 11.881 25.804C13.7066 26.3321 15.6361 26.3891 17.4896 25.9697C19.3432 25.5503 21.0602 24.6682 22.4807 23.4057C23.9011 22.1432 24.9785 20.5415 25.6125 18.75"
              stroke="#1E1E1E" stroke-width="3" stroke-linecap="round" stroke-linejoin="round"/>
    </g>
    <defs>
        <clipPath id="clip0_106_425">
            <rect width="30" height="30" fill="white"/>
        </clipPath>
    </defs>
</svg>
