<svg width="40" height="40" viewBox="0 0 40 40" fill="none" xmlns="http://www.w3.org/2000/svg">
    <g clip-path="url(#clip0_106_551)">
        <path d="M20.0001 25C22.7615 25 25.0001 22.7614 25.0001 20C25.0001 17.2386 22.7615 15 20.0001 15C17.2387 15 15.0001 17.2386 15.0001 20C15.0001 22.7614 17.2387 25 20.0001 25Z"
              stroke="#1E1E1E" stroke-width="4" stroke-linecap="round" stroke-linejoin="round"/>
        <path d="M32.3334 25C32.1116 25.5027 32.0454 26.0603 32.1434 26.601C32.2414 27.1417 32.4992 27.6406 32.8834 28.0334L32.9834 28.1333C33.2933 28.4429 33.5392 28.8106 33.7069 29.2152C33.8747 29.6199 33.961 30.0536 33.961 30.4917C33.961 30.9297 33.8747 31.3635 33.7069 31.7682C33.5392 32.1728 33.2933 32.5404 32.9834 32.85C32.6738 33.1599 32.3062 33.4058 31.9015 33.5735C31.4969 33.7413 31.0631 33.8276 30.6251 33.8276C30.187 33.8276 29.7533 33.7413 29.3486 33.5735C28.944 33.4058 28.5763 33.1599 28.2667 32.85L28.1667 32.75C27.7739 32.3658 27.2751 32.108 26.7344 32.01C26.1937 31.912 25.6361 31.9782 25.1334 32.2C24.6405 32.4113 24.2201 32.7621 23.9239 33.2092C23.6278 33.6564 23.4689 34.1804 23.4667 34.7167V35C23.4667 35.8841 23.1156 36.7319 22.4904 37.357C21.8653 37.9822 21.0175 38.3334 20.1334 38.3334C19.2494 38.3334 18.4015 37.9822 17.7764 37.357C17.1513 36.7319 16.8001 35.8841 16.8001 35V34.85C16.7872 34.2984 16.6086 33.7633 16.2876 33.3145C15.9666 32.8657 15.518 32.5238 15.0001 32.3334C14.4974 32.1115 13.9398 32.0453 13.3991 32.1433C12.8584 32.2414 12.3595 32.4991 11.9667 32.8833L11.8667 32.9834C11.5572 33.2933 11.1895 33.5391 10.7849 33.7069C10.3802 33.8746 9.94647 33.961 9.50841 33.961C9.07036 33.961 8.63661 33.8746 8.23195 33.7069C7.82729 33.5391 7.45966 33.2933 7.15008 32.9834C6.84016 32.6738 6.5943 32.3061 6.42655 31.9015C6.2588 31.4968 6.17246 31.0631 6.17246 30.625C6.17246 30.187 6.2588 29.7532 6.42655 29.3486C6.5943 28.9439 6.84016 28.5763 7.15008 28.2667L7.25008 28.1667C7.63431 27.7739 7.89206 27.275 7.99009 26.7343C8.08812 26.1937 8.02194 25.636 7.80008 25.1334C7.58881 24.6404 7.23801 24.22 6.79086 23.9239C6.34371 23.6277 5.81973 23.4688 5.28341 23.4667H5.00008C4.11603 23.4667 3.26818 23.1155 2.64306 22.4904C2.01794 21.8653 1.66675 21.0174 1.66675 20.1334C1.66675 19.2493 2.01794 18.4015 2.64306 17.7763C3.26818 17.1512 4.11603 16.8 5.00008 16.8H5.15008C5.70174 16.7871 6.23676 16.6085 6.68558 16.2875C7.1344 15.9665 7.47627 15.5179 7.66675 15C7.88861 14.4973 7.95479 13.9397 7.85675 13.399C7.75872 12.8584 7.50098 12.3595 7.11675 11.9667L7.01675 11.8667C6.70683 11.5571 6.46096 11.1895 6.29322 10.7848C6.12547 10.3802 6.03913 9.9464 6.03913 9.50835C6.03913 9.0703 6.12547 8.63655 6.29322 8.23189C6.46096 7.82723 6.70683 7.4596 7.01675 7.15002C7.32632 6.8401 7.69395 6.59424 8.09861 6.42649C8.50327 6.25874 8.93703 6.1724 9.37508 6.1724C9.81313 6.1724 10.2469 6.25874 10.6515 6.42649C11.0562 6.59424 11.4238 6.8401 11.7334 7.15002L11.8334 7.25002C12.2262 7.63425 12.7251 7.892 13.2658 7.99003C13.8064 8.08806 14.3641 8.02188 14.8667 7.80002H15.0001C15.493 7.58875 15.9134 7.23795 16.2096 6.7908C16.5057 6.34365 16.6646 5.81966 16.6667 5.28335V5.00002C16.6667 4.11597 17.0179 3.26812 17.6431 2.643C18.2682 2.01788 19.116 1.66669 20.0001 1.66669C20.8841 1.66669 21.732 2.01788 22.3571 2.643C22.9822 3.26812 23.3334 4.11597 23.3334 5.00002V5.15002C23.3356 5.68633 23.4945 6.21031 23.7906 6.65746C24.0867 7.10461 24.5071 7.45541 25.0001 7.66669C25.5028 7.88854 26.0604 7.95473 26.6011 7.85669C27.1417 7.75866 27.6406 7.50091 28.0334 7.11669L28.1334 7.01669C28.443 6.70677 28.8106 6.4609 29.2153 6.29315C29.6199 6.12541 30.0537 6.03906 30.4917 6.03906C30.9298 6.03906 31.3636 6.12541 31.7682 6.29315C32.1729 6.4609 32.5405 6.70677 32.8501 7.01669C33.16 7.32626 33.4059 7.69389 33.5736 8.09855C33.7414 8.50321 33.8277 8.93697 33.8277 9.37502C33.8277 9.81307 33.7414 10.2468 33.5736 10.6515C33.4059 11.0561 33.16 11.4238 32.8501 11.7334L32.7501 11.8334C32.3658 12.2262 32.1081 12.725 32.0101 13.2657C31.912 13.8064 31.9782 14.364 32.2001 14.8667V15C32.4113 15.493 32.7622 15.9134 33.2093 16.2095C33.6565 16.5056 34.1804 16.6645 34.7167 16.6667H35.0001C35.8841 16.6667 36.732 17.0179 37.3571 17.643C37.9822 18.2681 38.3334 19.116 38.3334 20C38.3334 20.8841 37.9822 21.7319 37.3571 22.357C36.732 22.9822 35.8841 23.3334 35.0001 23.3334H34.8501C34.3138 23.3355 33.7898 23.4944 33.3426 23.7905C32.8955 24.0867 32.5447 24.5071 32.3334 25Z"
              stroke="#1E1E1E" stroke-width="4" stroke-linecap="round" stroke-linejoin="round"/>
    </g>
    <defs>
        <clipPath id="clip0_106_551">
            <rect width="40" height="40" fill="white"/>
        </clipPath>
    </defs>
</svg>
